{
	"asset":{
		"generator":"Khronos glTF Blender I/O v4.2.57",
		"version":"2.0"
	},
	"scene":0,
	"scenes":[
		{
			"name":"Scene",
			"nodes":[
				0
			]
		}
	],
	"nodes":[
		{
			"mesh":0,
			"name":"Cube.001",
			"rotation":[
				0,
				0,
				-0.3826834261417389,
				0.9238795638084412
			],
			"scale":[
				0.22106778621673584,
				0.22106778621673584,
				0.22106780111789703
			],
			"translation":[
				0,
				0.07942883670330048,
				0
			]
		}
	],
	"meshes":[
		{
			"name":"Cube.002",
			"primitives":[
				{
					"attributes":{
						"POSITION":0,
						"NORMAL":1,
						"TEXCOORD_0":2
					},
					"indices":3
				}
			]
		}
	],
	"accessors":[
		{
			"bufferView":0,
			"componentType":5126,
			"count":15822,
			"max":[
				1.1641435623168945,
				1.1641435623168945,
				10.251882553100586
			],
			"min":[
				-1.1641435623168945,
				-1.1641435623168945,
				-10.245736122131348
			],
			"type":"VEC3"
		},
		{
			"bufferView":1,
			"componentType":5126,
			"count":15822,
			"type":"VEC3"
		},
		{
			"bufferView":2,
			"componentType":5126,
			"count":15822,
			"type":"VEC2"
		},
		{
			"bufferView":3,
			"componentType":5123,
			"count":71100,
			"type":"SCALAR"
		}
	],
	"bufferViews":[
		{
			"buffer":0,
			"byteLength":189864,
			"byteOffset":0,
			"target":34962
		},
		{
			"buffer":0,
			"byteLength":189864,
			"byteOffset":189864,
			"target":34962
		},
		{
			"buffer":0,
			"byteLength":126576,
			"byteOffset":379728,
			"target":34962
		},
		{
			"buffer":0,
			"byteLength":142200,
			"byteOffset":506304,
			"target":34963
		}
	],
	"buffers":[
		{
			"byteLength":648504,
			"uri":"kunaiAc.bin"
		}
	]
}
